Tinker Bell (2008) | m-HD | 480p | AC3 | Hindi | BHATTI87

General
Unique ID                       : 194933959428040266380941158567092991253 (0x92A6EA3B1561644FBB1A6E0D8794B515)
Complete name                   :Bell Trilogy  m-HD  480p  AC3  Hindi  BHATTI87\\Tinker Bell (2008)  m-HD  480p  AC3  Hindi  BHATTI87\\Tinker Bell (2008)  m-HD  480p  AC3  Hindi  BHATTI87.mkv
Format                          : Matroska
File size                       : 445 MiB
Duration                        : 1h 14mn
Overall bit rate                : 830 Kbps
Encoded date                    : UTC 2011-09-11 21:16:49
Writing application             : mkvmerge v4.9.1 (\'Ich will\') built on Jul 11 2011 23:53:15
Writing library                 : libebml v1.2.1 + libmatroska v1.1.1

Video
ID                              : 1
Format                          : AVC
Format/Info                     : Advanced Video Codec
Format profile                  : High@L3.1
Format settings, CABAC          : Yes
Format settings, ReFrames       : 5 frames
Codec ID                        : V_MPEG4/ISO/AVC
Duration                        : 1h 14mn
Bit rate                        : 701 Kbps
Width                           : 848 pixels
Height                          : 368 pixels
Display aspect ratio            : 2.35:1
Frame rate                      : 23.976 fps
Color space                     : YUV
Chroma subsampling              : 4:2:0
Bit depth                       : 8 bits
Scan type                       : Progressive
Bits/(Pixel*Frame)              : 0.094
Stream size                     : 367 MiB (83%)
Writing library                 : x264 core 116 r2074 2641b9e
Audio
ID                              : 2
Format                          : AC-3
Format/Info                     : Audio Coding 3
Mode extension                  : CM (complete main)
Codec ID                        : A_AC3
Duration                        : 1h 14mn
Bit rate mode                   : Constant
Bit rate                        : 128 Kbps
Channel(s)                      : 2 channels
Channel positions               : Front: L R
Sampling rate                   : 48.0 KHz
Bit depth                       : 16 bits
Compression mode                : Lossy

Screens: 
http://img842.imageshack.us/img842/5012/tinkerbell2008112815.jpg 
http://img38.imageshack.us/img38/3341/tinkerbell2008112903.jpg 
http://img220.imageshack.us/img220/5417/tinkerbell2008112954.jpg 
http://img109.imageshack.us/img109/8718/tinkerbell2008113141.jpg 
http://img821.imageshack.us/img821/8589/tinkerbell2008113207.jpg 
http://img696.imageshack.us/img696/2017/tinkerbell2008113318.jpg

Tinker Bell And The Lost Treasure (2009) | m-HD | 480p | AC3 | Hindi | BHATTI87

General
Unique ID                       : 180973966147552357428754375822803764122 (0x8826516C1B0340C6A058FFA791AC839A)
Complete name                   :Bell Trilogy  m-HD  480p  AC3  Hindi  BHATTI87\\Tinker Bell And The Lost Treasure (2009)  m-HD  480p  AC3  Hindi  BHATTI87\\Tinker Bell And The Lost Treasure (2009)  m-HD  480p  AC3  Hindi  BHATTI87.mkv
Format                          : Matroska
File size                       : 446 MiB
Duration                        : 1h 16mn
Overall bit rate                : 810 Kbps
Encoded date                    : UTC 2011-09-10 12:40:22
Writing application             : mkvmerge v4.9.1 (\'Ich will\') built on Jul 11 2011 23:53:15
Writing library                 : libebml v1.2.1 + libmatroska v1.1.1

Video
ID                              : 1
Format                          : AVC
Format/Info                     : Advanced Video Codec
Format profile                  : High@L3.1
Format settings, CABAC          : Yes
Format settings, ReFrames       : 5 frames
Codec ID                        : V_MPEG4/ISO/AVC
Duration                        : 1h 16mn
Bit rate                        : 681 Kbps
Width                           : 848 pixels
Height                          : 368 pixels
Display aspect ratio            : 2.35:1
Frame rate                      : 23.976 fps
Color space                     : YUV
Chroma subsampling              : 4:2:0
Bit depth                       : 8 bits
Scan type                       : Progressive
Bits/(Pixel*Frame)              : 0.091
Stream size                     : 367 MiB (82%)
Writing library                 : x264 core 116 r2074 2641b9e
Audio
ID                              : 2
Format                          : AC-3
Format/Info                     : Audio Coding 3
Mode extension                  : CM (complete main)
Codec ID                        : A_AC3
Duration                        : 1h 16mn
Bit rate mode                   : Constant
Bit rate                        : 128 Kbps
Channel(s)                      : 2 channels
Channel positions               : Front: L R
Sampling rate                   : 48.0 KHz
Bit depth                       : 16 bits
Compression mode                : Lossy
Stream size                     : 70.5 MiB (16%)


screens: 
http://img851.imageshack.us/img851/3694/tinkerbellandthelosttre.jpg 
http://img84.imageshack.us/img84/1599/tinkerbellandthelosttrea.jpg 
http://img847.imageshack.us/img847/3694/tinkerbellandthelosttre.jpg 
http://img689.imageshack.us/img689/1333/tinkerbellandthelosttrec.jpg 
http://img15.imageshack.us/img15/3694/tinkerbellandthelosttre.jpg


Tinker Bell and the Great Fairy Rescue (2010) | m-HD | 480p | AC3 | Hindi | BHATTI87

General
Unique ID                       : 170381616586804434795918266397805069621 (0x802E4E44B2EFFE258F980FAD65254535)
Complete name                   :Bell Trilogy  m-HD  480p  AC3  Hindi  BHATTI87\\Tinker Bell and the Great Fairy Rescue (2010)  m-HD  480p  AC3  Hindi  BHATTI87\\Tinker Bell and the Great Fairy Rescue (2010)  m-HD  480p  AC3  Hindi  BHATTI87.mkv
Format                          : Matroska
File size                       : 444 MiB
Duration                        : 1h 13mn
Overall bit rate                : 846 Kbps
Encoded date                    : UTC 2011-09-12 20:18:54
Writing application             : mkvmerge v4.9.1 (\'Ich will\') built on Jul 11 2011 23:53:15
Writing library                 : libebml v1.2.1 + libmatroska v1.1.1

Video
ID                              : 1
Format                          : AVC
Format/Info                     : Advanced Video Codec
Format profile                  : High@L3.1
Format settings, CABAC          : Yes
Format settings, ReFrames       : 5 frames
Codec ID                        : V_MPEG4/ISO/AVC
Duration                        : 1h 13mn
Bit rate                        : 717 Kbps
Width                           : 848 pixels
Height                          : 368 pixels
Display aspect ratio            : 2.35:1
Frame rate                      : 23.976 fps
Color space                     : YUV
Chroma subsampling              : 4:2:0
Bit depth                       : 8 bits
Scan type                       : Progressive
Bits/(Pixel*Frame)              : 0.096
Stream size                     : 368 MiB (83%)
Writing library                 : x264 core 116 r2074 2641b9e
Audio
ID                              : 2
Format                          : AC-3
Format/Info                     : Audio Coding 3
Mode extension                  : CM (complete main)
Codec ID                        : A_AC3
Duration                        : 1h 13mn
Bit rate mode                   : Constant
Bit rate                        : 128 Kbps
Channel(s)                      : 2 channels
Channel positions               : Front: L R
Sampling rate                   : 48.0 KHz
Bit depth                       : 16 bits
Compression mode                : Lossy
Stream size                     : 67.1 MiB (15%)


Screens: 
http://img827.imageshack.us/img827/5277/tinkerbellandthegreatfal.jpg 
http://img98.imageshack.us/img98/6561/tinkerbellandthegreatfas.jpg 
http://img10.imageshack.us/img10/9797/tinkerbellandthegreatfa.jpg 
http://img220.imageshack.us/img220/2733/tinkerbellandthegreatfah.jpg 
http://img545.imageshack.us/img545/4126/tinkerbellandthegreatfat.jpg

Originally Encoded By ...……….. DjVikas In 1.95Gb
Re-encoded by ............... BHATTI87 In 450mb





